<?xml version="1.0" standalone="no"?>
<!DOCTYPE svg PUBLIC "-//W3C//DTD SVG 1.0//EN" "http://www.w3.org/TR/2001/REC-SVG-20010904/DTD/svg10.dtd">
<svg xmlns="http://www.w3.org/2000/svg" xmlns:xlink="http://www.w3.org/1999/xlink" id="body_1" width="154" height="115">

<g transform="matrix(0.34375 0 0 0.34375 -0 16.249998)">
    <path d="M1 226C 1 151.07361 1 76.147224 1 1C 74.35408 1 147.70837 1 221.42715 1.347272C 211.29816 5.995044 205.76212 13.484077 206.34616 25.154531C 206.77171 33.657726 212.20987 41.556442 219.89194 44.29462C 229.0629 47.563503 239.73636 45.411118 245.17126 39.19688C 251.39569 32.079937 252.71837 22.154612 249.10143 14.268607C 246.14069 7.813318 240.61404 4.444971 235 1C 306.26053 1 377.5211 1 449 1C 449 72.35408 449 143.70837 448.74 215.32426C 447.882 215.00874 447.22678 214.47981 446.69464 213.84732C 438.92535 204.6121 422.07925 205.97264 416.05884 211.42296C 408.7397 218.049 403.53674 229.19804 411 241C 396.31244 241 381.62488 241 366.64206 240.71054C 378.90817 227.84114 391.46054 215.2522 404.03424 202.68457C 411.8689 194.8537 412.9415 182.32689 406.39825 174.62341C 399.17346 166.1176 386.37527 164.94936 377.2032 171.70139C 373.53946 174.39839 370.59555 177.77579 367.31726 180.8353C 363.59143 184.31245 358.90173 184.67256 355.7739 181.66576C 352.70966 178.7201 353.02264 173.86563 356.63538 170.1152C 359.87125 166.75606 363.4694 163.71191 366.44153 160.14085C 370.66995 155.06032 373.5564 149.47836 372.0978 142.3365C 370.35626 133.80916 365.43124 128.06927 357.28543 125.9275C 349.26355 123.81831 342.07898 125.93211 335.90497 132.13666C 321.48096 146.63194 306.7199 160.7922 292.06564 175.05765C 288.21573 178.80539 283.9211 179.0236 280.63715 175.79257C 277.49905 172.7051 277.75464 168.15584 281.49255 164.3834C 283.8656 161.98848 285.81143 159.34737 287.39337 156.38751C 291.70532 148.31964 289.53848 137.34215 282.53378 131.98334C 273.47894 125.05613 262.42694 124.97063 255.23232 131.89131C 245.65428 141.10464 236.1388 150.38312 226.62009 159.65788C 222.68259 163.49448 218.93674 167.53825 214.86134 171.21947C 211.58337 174.18036 206.9587 174.02269 204.47444 171.31557C 201.97697 168.59404 201.79585 163.06985 204.50429 160.33598C 217.28438 147.43582 229.76173 134.19499 243.13101 121.93019C 257.87405 108.405136 271.68738 93.98468 285.7057 79.765465C 293.37228 71.98899 292.56775 58.461693 284.95663 51.318794C 276.41043 43.298347 264.06796 43.344555 255.73369 51.431595C 245.60773 61.257114 235.43169 71.03174 225.37497 80.92764C 216.11194 90.042564 207.03218 99.343796 197.76523 108.45468C 193.02985 113.11029 189.1821 113.409615 185.62659 109.79881C 182.26161 106.3815 182.76302 102.036354 187.10472 97.646454C 192.96222 91.72393 198.99196 85.96545 204.70084 79.904C 210.68489 73.55041 212.91606 59.92932 202.68478 50.797493C 194.72568 43.69367 182.87677 43.590878 175.11989 51.078545C 165.58156 60.285847 155.93872 69.38739 146.51485 78.71032C 109.93927 114.89417 73.253 150.96931 36.99965 187.47394C 24.62732 199.93207 10.567572 210.89513 1 226zM325.6288 94.86188C 317.1457 83.62495 302.89935 82.11879 291.99286 91.72681C 282.6307 99.974396 282.53165 115.169914 291.49966 124.26058C 299.3823 132.25099 312.67136 132.71875 322.08417 125.62923C 330.32306 119.42388 332.7715 103.73355 325.6288 94.86188z" stroke="none" fill="#000000" fill-rule="nonzero" />
    <path d="M42.46866 241C 52.433304 230.47789 62.588448 219.66104 73.359055 209.49634C 94.41966 189.6205 114.65556 168.92001 135.25609 148.58418C 143.75725 140.19228 152.40979 131.95253 161.05835 123.71166C 164.92549 120.02682 168.09315 119.998245 171.51381 123.34199C 174.82475 126.5785 174.69656 130.49037 170.96773 134.23056C 157.67424 147.56456 144.35646 160.87451 131.00476 174.1502C 124.908005 180.21227 122.79407 187.36452 125.30781 195.57562C 127.902245 204.05032 134.19728 209.02765 142.60217 210.23914C 149.46205 211.22797 155.46428 207.87332 160.53508 203.1459C 166.98311 197.1345 172.61844 190.27415 179.72801 184.94911C 183.46037 182.15355 187.94257 181.8925 190.53946 184.5588C 193.02342 187.10916 193.23474 192.52641 190.38884 195.58662C 185.40974 200.94063 180.48459 206.47183 174.81175 211.0255C 164.94011 218.9496 162.14928 228.96112 167.81189 240.70886C 154.64577 241 141.29155 241 127.591095 240.65714C 130.00127 234.70442 130.62854 228.80429 128.84792 222.8733C 126.34295 214.52962 120.633606 209.02878 112.066536 207.6302C 103.0585 206.15964 94.7427 208.16661 89.17076 216.23659C 83.69918 224.16121 83.22902 232.50153 88 241C 72.9791 241 57.95821 241 42.46866 241z" stroke="none" fill="#000000" fill-rule="nonzero" />
    <path d="M204.46866 241C 220.91658 224.0125 237.72995 206.92017 254.81056 190.09924C 260.16415 184.82704 266.9201 186.69301 268.73148 193.33063C 269.78888 197.20535 267.3075 199.65575 265.09454 202.01553C 261.14014 206.23233 256.5974 209.92627 252.8721 214.32298C 245.51692 223.00378 245.09789 230.21573 250.83086 240.69458C 235.64577 241 220.29155 241 204.46866 241z" stroke="none" fill="#000000" fill-rule="nonzero" />
    <path d="M286.46866 241C 286.438 238.67113 288.36295 237.44868 289.8572 235.94492C 302.4108 223.31155 314.98285 210.69635 327.60135 198.1279C 329.00046 196.73431 330.7024 195.6368 332.30347 194.45558C 335.58163 192.03708 338.92404 192.148 341.80508 194.91151C 345.0296 198.00447 345.2363 202.34846 342.28137 205.73312C 340.00412 208.34157 336.92 210.2704 334.7715 212.96188C 327.72543 221.78876 325.97595 229.4675 332.88168 240.67279C 317.64578 241 302.29153 241 286.46866 241z" stroke="none" fill="#000000" fill-rule="nonzero" />
</g>
</svg>